<svg width="236" height="306" viewBox="0 0 236 306" fill="none" xmlns="http://www.w3.org/2000/svg">
<g id="Frame 9">
<g id="Group 22">
<path id="Vector" d="M225.073 190.092C214.347 201.416 194.894 212.673 178.153 214.129C176.642 214.261 175.115 216.872 176.187 218.402C176.814 219.296 177.52 220.522 177.874 221.742C178.602 224.246 178.328 226.092 175.643 227.471C173.401 228.624 170.611 229.585 168.015 230.725C165.419 231.865 160.592 233.81 158.316 234.783C156.039 235.757 154.626 236.27 153.121 236.952C148.211 239.171 145.698 240.59 140.945 243.41C132.982 248.141 123.676 252.052 114.116 253.094C113.406 253.171 112.552 253.254 111.858 253.281C110.192 253.349 109.179 253.364 107.347 253.085C106.859 253.011 106.152 252.903 105.206 252.734C89.7559 249.997 79.1167 246.781 72.4653 231.112C71.6727 229.244 71.6973 226.891 71.2395 224.679C70.7848 222.467 69.4392 220.971 66.8524 220.728C65.2394 220.577 62.797 220.74 61.1441 220.473C58.2439 220.003 56.972 218.617 56.4743 215.815C56.1149 213.791 56.3822 211.978 55.8507 209.864C55.058 206.722 52.4374 204.894 49.1102 205.103C44.7998 205.373 38.9257 205.394 34.8888 204.995C23.2112 203.843 10.4246 196.927 5.07274 187.001C-6.37134 165.775 3.38915 144.063 19.7795 130.118C27.9117 123.2 36.1853 122.195 45.528 121.9C54.1855 121.63 58.7908 124.733 65.7218 129.264C65.946 129.409 67.2425 131.006 68.0137 131.473C68.7848 131.94 70.453 132.456 71.3685 131.526C71.3747 131.519 71.4177 131.538 71.43 131.522C72.1212 130.515 72.6558 130.032 72.3148 128.681C70.7541 122.502 68.9384 116.229 67.1626 110.054C66.668 109.651 65.9276 109.132 65.4883 108.751C64.5451 107.934 63.6081 107.286 62.84 106.376C58.1272 100.806 55.6172 94.7693 55.3868 87.4727C55.3007 84.6893 56.2255 82.2468 56.8737 79.6078C56.8307 79.3159 56.7017 79.0917 56.6648 78.7537C56.2531 74.9073 54.929 70.0747 54.7785 66.4218C54.4344 58.0683 55.0734 52.4492 59.5066 44.996C63.4391 38.3845 68.7848 30.1417 73.2457 23.7115C76.9907 18.3167 79.9923 15.822 85.6483 12.6392C91.3043 9.45634 98.6561 6.06767 104.453 3.28422C109.452 0.900165 113.022 0.341018 118.202 0C118.22 0 118.229 0 118.248 0C123.434 0.341018 126.933 0.866371 131.928 3.26886C137.735 6.06152 145.093 9.47785 150.749 12.676C156.405 15.8773 159.403 18.3996 163.139 23.8037C167.582 30.2339 172.863 38.4921 176.792 45.0943C181.229 52.5506 181.822 58.1329 181.521 66.4832C181.388 70.1422 180.003 75.0117 179.739 78.8828C179.711 79.2699 179.564 79.4911 179.499 79.8229C180.375 82.3882 180.958 84.932 181.186 87.6448C181.219 88.0411 181.247 88.422 181.21 88.8337C180.473 97.0612 177.222 103.507 171.265 109.233C170.264 110.195 169.57 111.101 169.133 112.582C168.467 114.859 167.569 118.103 166.94 120.309C166.122 123.169 167.428 125.547 169.434 126.936C172.651 129.163 176.335 130.226 179.56 131.464C181.616 132.254 182.974 131.673 184.605 131.267C190.135 129.894 195.739 127.479 201.379 128.635C212.894 130.991 224.381 134.89 229.964 146.463C237.991 163.099 239.537 174.813 225.076 190.082L225.073 190.092Z" fill="url(#paint0_linear_262_547)"/>
<g id="Group">
<path id="Vector_2" d="M193.3 168.918C187.515 172.816 181.41 175.698 174.58 176.992C173.941 177.111 173.757 176.967 173.305 176.488C171.456 174.522 169.668 172.374 168.064 170.137C167.235 168.979 168.178 167.477 169.536 167.723C172.445 168.248 176.095 169.108 178.805 169.176C184.058 169.302 187.554 168.23 192.123 166.15C192.138 166.144 192.16 166.15 192.206 166.144C193.8 166.027 194.581 168.054 193.3 168.918Z" fill="#242424"/>
<path id="Vector_3" d="M139.809 199.195C134.396 201.84 129.689 205.081 125.096 208.906C124.681 209.25 124.273 209.674 123.818 209.926C122.534 210.636 120.933 209.591 121.858 208.113C125.655 202.033 129.499 195.852 132.411 189.274C132.995 187.956 134.328 187.959 135.115 189.093C136.813 191.548 138.494 194.319 140.34 196.663C141.108 197.64 140.804 198.712 139.812 199.198L139.809 199.195Z" fill="#242424"/>
<path id="Vector_4" d="M150.519 163.449C150.129 163.618 150.046 163.661 148.952 164.088C147.858 164.515 143.416 166.297 142.23 166.773C141.047 167.25 140.675 167.4 140.039 167.634C138.81 168.079 138.165 167.332 138.159 166.398C138.138 162.703 138.294 159.17 138.144 155.532C138.11 154.693 138.623 154.331 139.336 154.054C139.406 154.027 139.526 154.002 139.609 154.005C140.006 154.02 140.257 154.005 140.602 154.266C143.88 156.764 147.327 158.736 150.847 160.997C151.72 161.557 151.861 162.868 150.519 163.449Z" fill="#242424"/>
<path id="Vector_5" d="M48.7662 166.761C46.33 167.526 43.4973 168.036 41.0334 168.383C39.614 168.583 38.6862 167.704 38.8368 166.42C39.1133 164.091 40.3852 162.097 41.6448 160.242C42.3606 159.185 43.5066 159.154 44.4037 159.855C46.0627 161.148 47.7247 162.362 49.3592 163.633C50.6526 164.641 50.3208 166.276 48.7662 166.764V166.761Z" fill="#242424"/>
<path id="Vector_6" d="M97.1017 178.38C96.6624 179.935 94.6378 180.024 93.8697 178.678C91.6731 174.823 89.1784 170.798 86.5916 167.351C85.6822 166.14 86.1615 165.277 87.0555 164.684C90.3244 162.518 93.4181 160.331 96.3921 157.956C97.6701 156.933 99.2585 157.431 99.3045 159.139C99.4889 165.643 98.8775 172.082 97.0987 178.383L97.1017 178.38Z" fill="#242424"/>
<path id="Vector_7" d="M219.558 153.437C216.025 146.033 208.301 142.54 200.313 141.292C196.292 140.665 191.637 142.248 187.493 143.867C185.683 144.573 183.594 145.369 181.1 144.933C171.588 143.274 162.436 138.444 154.599 132.905C151.443 130.675 151.287 128.653 151.91 125.074C152.445 122.005 154.15 118.333 154.967 115.323C155.781 112.312 156.654 109.808 157.511 106.883C159.698 105.061 162.93 103.027 164.857 101.147C168.872 97.2302 170.845 93.6295 170.845 88.1302C170.845 83.5864 168.5 80.5479 165.68 77.2361C165.674 77.2268 165.695 77.2576 165.665 77.233C165.121 76.7537 165.597 77.1961 164.817 76.5049C161.867 73.8812 157.763 70.7567 154.829 67.9118C152.838 65.9794 153.032 64.0469 154.248 61.8718C154.347 61.6998 154.599 61.4724 154.721 61.3034C154.728 61.2942 154.728 61.2819 154.731 61.2758C154.887 61.1191 155.053 60.8211 155.222 60.6921C157.235 59.1344 158.986 58.7166 161.25 60.2712C163.106 61.5431 165.072 63.5492 166.863 64.9686C167.087 65.1468 166.992 65.1284 167.182 65.2359C167.182 65.2359 167.182 65.2298 167.186 65.2359C167.192 65.239 167.192 65.2482 167.204 65.2513C167.216 65.2543 167.241 65.282 167.25 65.2912C167.256 65.3004 167.253 65.2912 167.259 65.3004C167.265 65.3096 167.287 65.325 167.296 65.3311C167.308 65.3373 167.318 65.3526 167.324 65.3557C167.788 65.7367 168.23 66.1514 168.709 66.5262C168.697 65.8503 169.023 65.0577 169.004 64.4279C168.854 59.5308 168.998 56.5445 166.193 52.0345C161.932 45.1865 156.995 37.3062 152.405 30.5749C150.165 27.2907 148.632 25.9604 145.161 24.0772C139.237 20.8636 132.223 17.5026 126.183 14.6239C123.114 13.1615 121.274 12.7375 118.156 12.7345C115.037 12.7314 113.185 13.1615 110.134 14.6239C104.146 17.4903 97.117 20.8175 91.2275 23.9973C87.7375 25.8806 86.2014 27.1955 83.9586 30.4797C79.3626 37.2048 74.3579 45.0544 70.1059 51.9085C67.3163 56.4063 67.3993 59.4048 67.2703 64.2989C67.2549 64.9225 67.5836 65.7182 67.5805 66.388C68.0383 66.0285 68.4623 65.6199 68.9108 65.2635C68.96 65.2236 68.9999 65.2113 69.0337 65.1652C69.0675 65.1192 68.8555 65.2298 69.0122 65.1867C69.1689 65.1437 69.1013 65.0946 69.4761 64.7966C71.1198 63.4878 73.1689 61.411 74.9754 60.1851C77.2397 58.646 79.0461 59.0361 81.0615 60.6183C81.2274 60.7474 81.4056 61.0239 81.55 61.1959C81.6944 61.368 81.9463 61.5738 82.0477 61.752C82.613 62.7382 83.1199 63.3557 83.0431 64.6061C82.9663 65.8565 82.6314 66.8765 81.4886 67.8872C78.4378 70.5816 74.5822 73.7736 71.5775 76.385C70.8893 76.9841 71.2857 76.637 70.8033 77.0579C70.7726 77.0855 70.7849 77.064 70.7787 77.0702C67.9953 80.4158 65.6112 83.4174 65.6665 87.9858C65.7341 93.4851 67.7004 97.0182 71.7926 100.911C73.7865 102.806 77.1321 104.948 79.3226 106.902C80.1552 109.556 80.8833 112.192 81.6237 114.84C81.6391 114.896 81.6422 114.914 81.6575 114.945C81.6729 114.978 81.6667 114.978 81.676 115.003C81.6852 115.028 81.6944 115.058 81.7005 115.083C81.7036 115.108 81.7098 115.12 81.719 115.141C81.7251 115.163 81.7282 115.2 81.7343 115.221C81.7405 115.24 81.7466 115.249 81.7497 115.261C81.7497 115.276 81.7497 115.273 81.7497 115.286C81.7497 115.301 81.7528 115.298 81.7558 115.313C81.8142 115.538 81.8081 115.492 81.8818 115.78C83.0554 120.472 84.8557 125.559 85.7651 130.232C86.3058 133.009 85.9894 134.607 84.0969 136.711C80.4133 140.807 76.0446 144.066 70.6313 145.636C69.9892 145.824 69.5929 145.793 68.8985 145.713C65.0552 145.262 62.8401 143.449 59.645 141.188C55.0581 137.947 51.2424 134.392 44.9566 134.582C38.0871 134.791 33.7153 135.268 27.6691 140.22C14.7872 150.776 9.41696 164.607 16.7166 180.601C18.4708 184.445 21.5984 186.838 24.9225 188.89C28.2467 190.943 31.9365 191.886 35.5648 192.215C43.4143 192.927 50.6464 191.308 58.115 189.443C59.8662 189.007 61.4576 188.442 63.178 188.03C63.6942 187.907 64.2287 187.818 64.7357 187.858C67.4269 188.07 69.5283 190.178 69.6912 192.657C70.0445 198.018 69.8817 202.786 70.2073 208.015C74.321 208.049 78.573 208.368 82.6284 208.209C82.8281 202.012 83.3319 183.032 80.4071 178.789C77.8387 175.062 75.4147 175.314 72.662 175.084C66.4131 174.558 59.9399 177.471 54.6772 178.694C48.4805 180.134 42.7139 181.741 37.2238 181.173C32.4833 180.681 29.5647 179.452 27.6876 175.6C22.3511 164.635 26.0501 156.07 34.9657 148.487C37.4511 146.374 40.7476 145.093 44.6186 145.421C47.0181 145.624 49.7585 147.089 52.0627 149.151C56.4898 153.111 62.0382 156.002 68.1827 156.672C69.4024 156.804 70.6681 156.746 71.7342 156.543C79.8633 155.001 86.4195 150.156 92.0171 144.601C95.0371 141.606 97.0771 141.225 100.957 140.515C101.698 140.38 102.831 140.604 103.55 140.816C109.443 142.567 110.312 144.887 111.563 150.601C114.767 165.228 110.398 187.609 100.432 197.41C91.034 206.651 82.8895 215.355 84.8066 226.236C87.0892 239.195 97.3505 239.521 106.045 241.573C109.185 242.313 110.887 241.85 112.272 241.745C123.833 240.885 131.738 234.704 140.264 228.04C143.585 225.444 145.83 222.378 149.873 221.038C150.337 220.885 150.611 220.949 150.878 221.201C151.956 222.224 152.814 223.6 153.324 224.98C156.78 223.594 160.227 222.141 163.665 220.7C161.072 215.978 158.126 212.448 152.995 210.617C151.95 210.245 151.265 210.144 150.233 210.295C143.204 211.324 138.279 215.155 132.875 219.68C126.909 224.679 120.229 229.852 112.294 230.817C111.504 230.912 110.232 231.075 109.941 230.998C104.911 229.702 94.9265 232.679 95.4119 223.806C95.8974 214.934 100.831 213.21 108.782 205.142C119.016 194.761 126.269 168.675 123.397 152.589C122.183 145.787 127.065 141.692 133.369 139.857C134.638 139.489 138.11 138.877 139.545 139.01C142.909 139.32 143.403 139.304 146.368 141.418C156.202 148.429 166.838 154.776 179.444 156.242C183.65 156.73 188.283 155.234 192.415 153.713C194.817 152.831 197.997 151.421 200.621 152.328C205.963 154.171 208.513 154.1 211.438 160.466C213.079 164.036 215.254 167.686 210.077 172.405C200.393 181.234 187.637 190.847 173.438 191.502C172.316 191.554 171.081 191.849 169.536 191.047C163.766 188.055 159.573 181.944 155.883 176.543C152.426 177.879 148.986 179.247 145.609 180.654C150.546 189.711 158.586 197.754 168.135 201.314C170.092 202.043 171.312 201.864 172.706 201.818C189.201 201.293 206.102 191.867 216.919 180.282C225.758 170.816 224.624 164.051 219.558 153.434V153.437ZM92.8405 109.163C86.0017 102.333 79.3503 95.3162 72.4162 88.5818C75.5469 85.4451 77.6821 83.3007 81.0523 79.9089C84.4225 76.5172 89.0309 71.8658 92.6469 68.2436C95.7284 71.1684 98.6593 74.2437 101.67 77.2391C97.8943 81.0518 94.1247 84.8644 90.3458 88.6771C94.1615 92.5081 97.9742 96.3392 101.799 100.161C98.816 103.166 95.8267 106.17 92.8374 109.163H92.8405ZM118.408 118.395C114.386 118.395 110.365 118.395 106.343 118.401C110.199 98.625 113.649 78.7722 117.369 58.9716C121.4 58.9808 125.431 58.987 129.458 58.987C125.741 78.7845 122.236 98.6188 118.408 118.395ZM142.411 109.003C139.28 106.143 136.368 103.061 133.333 100.1C137.13 96.2962 140.927 92.4989 144.721 88.6955C140.896 84.8859 137.071 81.0825 133.253 77.2668C136.267 74.2959 139.207 71.2513 142.264 68.3235C145.855 71.9057 150.23 76.299 153.637 79.6908C157.044 83.0825 159.419 85.5403 162.709 88.674C162.553 88.7631 162.353 88.9966 162.242 89.0826C162.132 89.1686 162.304 89.0273 162.224 89.0949C161.569 89.6448 162.119 89.2024 161.281 90.0473C158.722 92.6249 156.645 94.754 153.569 97.8631C150.494 100.972 145.806 105.63 142.414 109.006L142.411 109.003Z" fill="#242424"/>
</g>
</g>
</g>
<defs>
<linearGradient id="paint0_linear_262_547" x1="118.052" y1="0" x2="118.052" y2="253.323" gradientUnits="userSpaceOnUse">
<stop offset="0.005" stop-color="#53C9CB"/>
<stop offset="0.87" stop-color="#242424"/>
</linearGradient>
</defs>
</svg>
